<?xml version="1.0" standalone="no"?>
<!DOCTYPE svg PUBLIC "-//W3C//DTD SVG 20010904//EN"
 "http://www.w3.org/TR/2001/REC-SVG-20010904/DTD/svg10.dtd">
<svg version="1.0" xmlns="http://www.w3.org/2000/svg"
 width="471.000000pt" height="471.000000pt" viewBox="0 0 471.000000 471.000000"
 preserveAspectRatio="xMidYMid meet">
<metadata>
Created by potrace 1.11, written by Peter Selinger 2001-2013
</metadata>
<g transform="translate(0.000000,471.000000) scale(0.100000,-0.100000)"
fill="#000000" stroke="none">
<path d="M10 3422 c0 -8 27 -72 70 -167 34 -75 130 -424 145 -530 4 -22 8 -51
10 -65 20 -119 32 -228 34 -331 l1 -46 288 0 c212 0 299 3 333 13 79 24 139
101 139 182 0 36 -50 272 -65 309 -14 33 -71 97 -94 104 -8 3 -5 18 9 46 27
56 26 76 -12 185 -37 109 -65 157 -111 192 -61 47 -99 57 -277 71 -30 3 -79 8
-109 11 -29 3 -72 7 -95 9 -47 3 -149 13 -218 21 -27 3 -48 1 -48 -4z m564
-313 c7 -8 20 -35 29 -61 15 -45 15 -46 -6 -50 -12 -2 -40 -1 -61 2 -37 5 -41
8 -57 55 -28 80 -27 82 31 75 28 -4 57 -13 64 -21z m107 -361 c15 -22 30 -88
27 -111 -3 -19 -9 -22 -56 -22 -41 0 -56 4 -63 17 -5 10 -8 18 -5 18 3 0 0 15
-5 33 -5 17 -12 45 -15 61 l-5 28 57 -5 c31 -3 61 -11 65 -19z"/>
<path d="M949 3316 c-15 -9 -34 -32 -44 -53 -20 -42 -27 -9 58 -283 63 -203
113 -423 137 -607 l13 -93 163 0 163 0 -9 30 c-5 17 -7 30 -5 30 3 0 1 10 -4
23 -5 12 -12 44 -15 70 -4 25 -9 53 -12 60 -4 10 13 13 78 12 l83 -2 31 -109
31 -109 156 -3 c109 -2 157 1 157 8 0 50 -117 405 -191 580 -69 165 -198 408
-217 411 -10 2 -37 5 -112 13 -36 3 -87 9 -115 12 -27 3 -68 7 -90 9 -140 15
-231 15 -256 1z m412 -294 c5 -6 87 -191 106 -239 4 -10 -13 -13 -66 -13 -57
0 -72 3 -80 18 -17 32 -80 235 -75 243 5 8 106 0 115 -9z"/>
<path d="M1753 3231 c-82 -52 -82 -130 1 -338 31 -78 74 -190 95 -250 78 -216
82 -225 136 -279 86 -87 85 -86 611 -89 l452 -2 -20 71 c-10 39 -25 92 -33
118 l-14 47 87 -51 c48 -28 132 -81 187 -118 l100 -66 243 -2 244 -3 -59 52
c-134 117 -358 266 -583 387 -36 19 -68 38 -73 41 -4 4 -1 29 7 57 8 27 17 60
20 74 3 14 16 71 29 128 13 56 21 102 18 103 -3 0 -14 2 -23 4 -31 6 -183 18
-237 19 l-54 1 -28 -99 c-16 -54 -30 -103 -32 -109 -1 -5 -23 23 -47 64 -24
41 -60 97 -81 125 -41 56 -38 55 -209 70 -25 2 -73 6 -107 9 -35 4 -63 4 -63
1 0 -3 20 -37 45 -75 95 -148 262 -527 242 -548 -10 -9 -322 2 -360 13 -19 6
-38 44 -111 228 -26 64 -44 121 -41 126 3 5 27 7 53 5 43 -4 137 -12 240 -19
23 -2 42 -2 42 1 0 14 -109 201 -150 260 -12 16 -30 23 -75 27 -33 4 -85 9
-115 12 -30 3 -66 7 -80 10 -14 2 -70 6 -125 10 -89 5 -103 3 -132 -15z"/>
<path d="M3236 3083 c-11 -37 -65 -269 -68 -292 -3 -22 8 -31 92 -78 52 -29
102 -57 110 -62 151 -94 216 -136 220 -140 3 -3 57 -45 120 -93 63 -47 132
-103 153 -123 20 -21 37 -31 37 -24 0 8 -18 53 -39 102 l-39 87 95 0 c93 0 94
0 87 23 -45 146 -292 445 -380 461 -16 3 -78 9 -139 12 -60 4 -112 10 -115 14
-17 26 -114 130 -121 130 -4 0 -10 -8 -13 -17z"/>
<path d="M3771 2861 c97 -90 179 -201 238 -318 l41 -81 70 -4 c39 -2 74 -2 79
0 10 3 -17 80 -54 152 -28 56 -110 166 -169 228 -72 76 -101 90 -200 96 l-88
5 83 -78z"/>
<path d="M3937 2917 c4 -6 31 -34 61 -61 94 -87 242 -305 242 -358 1 -32 19
-42 84 -43 36 -1 66 1 66 4 -1 37 -92 223 -138 281 -45 57 -136 151 -155 162
-11 5 -47 12 -80 14 -34 3 -68 7 -75 9 -8 3 -10 0 -5 -8z"/>
<path d="M4195 2851 c87 -90 141 -166 195 -276 28 -55 50 -105 50 -111 0 -6
23 -12 55 -13 30 -1 55 2 55 6 0 18 -33 102 -61 157 -42 83 -101 167 -162 230
-51 54 -53 55 -121 61 l-68 5 57 -59z"/>
<path d="M4330 2891 c0 -5 8 -16 18 -23 24 -18 112 -122 155 -184 44 -64 81
-136 97 -191 11 -36 18 -43 39 -44 27 -1 64 1 68 5 4 4 -43 130 -62 167 -33
65 -102 164 -148 215 -43 47 -49 51 -98 53 -29 1 -56 4 -61 7 -4 3 -8 1 -8 -5z"/>
<path d="M2084 2222 c-18 -3 -24 -14 -33 -65 -25 -128 -54 -235 -93 -342 -52
-144 -60 -155 -103 -155 -40 0 -40 -1 -19 48 50 121 89 263 118 435 l13 78
-141 -3 -141 -3 -3 -35 c-11 -132 -71 -350 -144 -525 -75 -176 -69 -244 21
-262 20 -4 38 -7 41 -6 3 1 39 4 80 7 41 4 100 9 130 12 30 2 80 7 111 9 58 4
120 25 142 47 71 73 200 405 243 623 2 11 9 44 15 73 6 30 9 56 6 58 -5 6
-212 10 -243 6z"/>
<path d="M2360 2220 c-7 -4 -20 -57 -57 -227 -5 -21 -2 -23 38 -24 24 -1 55 0
67 1 22 2 23 -1 17 -32 -13 -59 -77 -239 -131 -370 -29 -71 -49 -129 -46 -129
4 -1 9 -1 12 -1 25 1 201 15 220 17 14 2 31 4 38 4 20 1 93 172 167 391 l43
125 48 1 c27 1 56 2 65 3 12 1 22 24 37 89 12 48 23 103 26 122 l6 36 -271 -1
c-149 0 -274 -2 -279 -5z"/>
<path d="M2926 2212 c-3 -9 -7 -33 -10 -52 -10 -62 -15 -84 -40 -165 -32 -106
-61 -184 -104 -275 -45 -95 -50 -176 -14 -212 21 -21 31 -23 123 -21 95 1 186
8 257 18 87 12 142 74 241 272 56 113 91 210 125 353 l22 96 -132 0 -132 0
-12 -60 c-32 -173 -145 -438 -188 -444 l-23 -4 21 41 c57 113 127 329 142 441
l3 24 -137 3 c-121 1 -138 0 -142 -15z"/>
<path d="M3545 2220 c-2 -4 -7 -22 -10 -41 -35 -201 -141 -454 -250 -596 l-55
-72 58 5 c86 7 174 13 204 13 23 1 34 13 76 83 26 45 53 83 59 85 23 8 23 -39
-2 -131 l-8 -28 84 7 c136 11 181 15 239 20 140 12 172 15 275 21 61 3 113 8
116 10 4 2 34 44 68 93 l62 90 -68 -5 c-37 -3 -89 -7 -115 -9 -27 -2 -48 1
-48 6 0 16 32 22 152 28 10 1 34 34 62 85 25 46 46 87 46 90 0 3 -36 6 -81 6
-71 0 -80 2 -77 18 3 15 20 18 133 22 l129 5 32 75 c17 41 34 88 38 103 l7 28
-286 -2 c-284 -1 -285 -1 -289 -22 -29 -160 -79 -315 -134 -422 -48 -92 -46
-91 -71 -52 -24 39 -26 47 -9 47 19 0 77 49 93 79 41 79 85 236 78 276 -3 17
-13 38 -22 49 -37 42 -60 46 -276 44 -114 -1 -208 -5 -210 -8z m245 -214 c0
-19 -34 -78 -51 -86 -29 -16 -31 -10 -13 43 13 39 20 47 40 47 13 0 24 -2 24
-4z"/>
<path d="M330 2210 c-32 -5 -35 -8 -42 -50 -4 -25 -10 -55 -13 -67 -5 -22 -3
-23 50 -22 31 1 58 0 60 -3 6 -6 -60 -251 -75 -278 -5 -10 -10 -21 -10 -24 0
-3 31 -6 69 -6 l69 0 16 43 c25 66 52 157 66 218 12 55 13 56 47 54 19 -1 41
4 48 11 11 12 29 105 23 121 -3 9 -253 11 -308 3z"/>
<path d="M732 2213 c-4 -1 -18 -4 -32 -7 -35 -8 -48 -33 -70 -144 -11 -53 -27
-122 -35 -152 -20 -73 -19 -96 5 -120 19 -19 32 -21 139 -19 177 2 191 14 237
206 40 165 35 208 -26 228 -21 7 -194 14 -218 8z m129 -129 c8 -4 -29 -166
-41 -177 -4 -5 -27 -10 -50 -12 l-41 -3 4 31 c9 58 30 142 39 154 8 10 75 16
89 7z"/>
<path d="M1137 2213 c-3 -5 -10 -51 -16 -103 -7 -52 -16 -113 -21 -135 -5 -22
-12 -56 -15 -75 -22 -131 -112 -396 -171 -506 l-33 -61 27 2 c15 2 59 6 97 9
134 12 179 17 186 21 6 4 73 141 110 224 15 34 17 35 85 38 136 6 123 -1 159
89 18 44 39 104 48 133 l15 53 -101 -2 c-56 -1 -105 -2 -109 -1 -4 0 -2 15 3
31 8 20 18 30 32 31 12 1 60 2 107 3 l84 1 17 80 c9 44 18 101 21 128 l6 47
-264 0 c-144 0 -265 -3 -267 -7z"/>
<path d="M861 1740 l-73 -5 -38 -115 c-36 -111 -95 -255 -112 -274 -20 -24 -3
-28 85 -21 50 4 101 8 112 9 14 1 30 20 52 61 17 33 30 62 28 66 -3 3 -26 4
-52 1 -43 -4 -46 -3 -34 12 8 9 21 16 30 15 52 -5 59 1 80 56 12 31 21 58 21
60 0 3 -18 5 -41 5 -25 0 -38 4 -34 10 4 6 12 10 18 9 55 -7 66 0 82 53 8 28
13 54 10 56 -7 7 -48 8 -134 2z"/>
<path d="M523 1732 c-45 -3 -53 -6 -53 -23 0 -29 -74 -243 -114 -332 -20 -43
-36 -80 -36 -82 0 -2 8 -2 18 0 9 2 38 4 63 4 l46 1 36 80 c20 44 41 80 47 80
15 0 13 -5 -25 -82 l-35 -70 70 5 c39 3 72 6 74 8 19 27 114 271 135 349 l19
69 -64 -3 c-35 -2 -66 -5 -68 -7 -2 -2 -14 -37 -25 -76 -15 -50 -27 -73 -37
-73 -11 0 -14 5 -9 18 8 19 35 114 35 123 0 11 -22 14 -77 11z"/>
<path d="M224 1722 c-16 -2 -24 -17 -37 -67 -9 -35 -17 -65 -17 -67 0 -2 16
-2 35 0 25 3 35 0 35 -9 0 -11 -60 -157 -117 -287 -5 -11 7 -13 58 -10 63 4
64 4 87 45 12 23 42 92 65 154 36 95 47 114 67 119 25 6 47 56 49 108 1 22 0
23 -101 20 -57 -2 -112 -4 -124 -6z"/>
<path d="M4400 1650 c-1 -3 -3 -16 -6 -30 -3 -21 -2 -22 7 -7 6 10 8 23 5 30
-2 7 -5 10 -6 7z"/>
<path d="M4450 1640 c0 -5 -6 -7 -14 -4 -8 3 -16 -3 -19 -16 -4 -16 -2 -20 10
-16 8 3 18 6 22 6 4 0 7 9 8 20 1 11 0 20 -3 20 -2 0 -4 -4 -4 -10z"/>
</g>
</svg>
