<?xml version="1.0" standalone="no"?>
<!DOCTYPE svg PUBLIC "-//W3C//DTD SVG 20010904//EN"
 "http://www.w3.org/TR/2001/REC-SVG-20010904/DTD/svg10.dtd">
<svg version="1.0" xmlns="http://www.w3.org/2000/svg"
 width="1120.000000pt" height="1120.000000pt" viewBox="0 0 1120.000000 1120.000000"
 preserveAspectRatio="xMidYMid meet">
<metadata>
Created by potrace 1.11, written by Peter Selinger 2001-2013
</metadata>
<g transform="translate(0.000000,1120.000000) scale(0.100000,-0.100000)"
fill="#000000" stroke="none">
<path d="M372 8012 c-21 -31 -49 -74 -61 -95 l-23 -38 43 -57 c117 -156 224
-311 285 -412 21 -36 41 -67 44 -70 3 -3 11 -16 18 -29 89 -157 116 -208 167
-310 29 -58 67 -140 85 -181 18 -41 38 -88 45 -105 25 -56 126 -333 130 -355
2 -8 46 -153 56 -180 24 -69 82 -327 93 -410 3 -19 7 -53 11 -75 13 -85 16
-112 21 -169 3 -33 7 -62 9 -66 2 -3 23 -5 47 -4 254 12 359 16 448 19 58 3
157 7 220 9 63 3 178 8 255 11 77 3 176 8 220 10 44 2 152 7 240 10 314 12
317 13 508 174 91 77 122 112 156 178 20 41 52 166 45 178 -2 3 0 2 5 -2 8 -8
63 -255 77 -343 3 -25 8 -54 11 -65 2 -11 4 -35 4 -54 l1 -34 172 7 c94 4 228
9 297 12 212 8 198 5 294 74 l86 62 -6 42 c-8 47 -8 43 -30 161 -9 50 -23 115
-31 145 -8 30 -14 57 -14 60 0 3 27 6 59 7 l59 1 36 -132 c33 -118 59 -225 71
-296 10 -56 14 -76 14 -88 1 -12 8 -12 366 3 296 13 265 7 365 71 82 53 97 69
90 99 -5 23 -10 52 -16 85 l-6 35 29 -40 c75 -102 182 -165 318 -189 79 -14
345 -14 605 -2 58 3 166 8 240 11 251 9 415 16 510 20 52 2 174 7 270 11 96 3
191 7 210 8 33 3 233 96 243 113 2 4 -6 50 -20 102 -13 52 -22 95 -21 97 3 3
33 -23 159 -137 174 -157 169 -153 202 -152 18 1 97 5 177 8 235 11 276 12
460 20 144 6 182 11 217 27 24 11 50 17 58 14 16 -6 208 85 219 103 6 9 -73
161 -131 254 l-23 37 102 1 c345 3 383 5 414 21 28 15 31 15 41 0 9 -15 29
-17 147 -15 101 1 148 6 178 18 38 15 42 15 50 1 13 -22 203 -23 255 -1 31 13
38 13 45 2 10 -18 162 -16 208 3 26 11 33 11 40 0 5 -9 28 -13 72 -11 60 1
123 22 245 81 l31 15 -36 55 c-126 194 -286 419 -356 501 -17 20 -53 64 -81
99 -27 34 -68 81 -90 106 -38 41 -44 43 -97 45 -31 1 -70 -4 -88 -11 -26 -11
-33 -10 -48 3 -24 22 -165 29 -208 12 -27 -11 -34 -11 -48 3 -17 18 -32 20
-161 23 -55 1 -89 -3 -109 -13 -26 -13 -30 -13 -51 6 -15 13 -39 21 -67 22
-24 1 -84 4 -135 8 -75 5 -99 3 -128 -11 -34 -16 -36 -16 -54 4 -15 15 -33 21
-78 22 -32 1 -80 4 -108 6 -46 4 -87 7 -270 19 -38 3 -110 8 -160 12 -87 7
-157 11 -201 13 -15 1 -49 35 -110 114 -49 61 -99 122 -111 135 l-23 23 -49
-26 c-49 -25 -67 -22 -55 9 3 9 2 16 -2 17 -5 0 -29 2 -54 4 -77 5 -213 15
-265 20 -27 2 -86 7 -130 10 -44 3 -105 7 -135 10 -52 3 -61 0 -162 -57 -106
-59 -107 -60 -110 -100 l-3 -40 -74 106 c-41 58 -82 108 -90 110 -9 3 -61 8
-116 11 -55 4 -122 8 -150 11 -63 6 -130 11 -270 19 -60 4 -113 9 -117 11 -8
5 -57 -19 -97 -49 -24 -17 -24 -17 -53 23 -16 22 -35 40 -41 41 -7 0 -28 2
-47 4 -19 1 -85 5 -146 9 -61 4 -131 9 -155 11 -24 2 -87 7 -139 10 -52 3
-111 8 -130 10 -19 3 -130 7 -245 10 -264 7 -276 3 -428 -114 -60 -46 -114
-95 -120 -108 -10 -23 -11 -23 -41 24 -17 27 -33 50 -36 53 -3 3 -39 51 -80
108 -65 90 -77 102 -104 103 -17 0 -51 2 -76 4 -65 5 -215 16 -285 20 -60 4
-142 10 -285 21 -41 3 -102 7 -135 9 -33 2 -109 7 -170 11 -60 5 -171 8 -246
8 -180 0 -200 -8 -314 -124 -49 -49 -95 -99 -102 -112 -20 -37 -15 -84 22
-183 4 -11 -7 3 -25 30 -67 103 -199 240 -292 301 -120 80 -343 172 -459 189
-24 4 -46 8 -49 10 -8 5 -123 15 -335 29 -44 3 -111 8 -150 11 -73 6 -134 10
-275 20 -47 3 -110 8 -140 11 -30 3 -87 7 -125 9 -39 2 -102 7 -140 10 -145
11 -193 15 -282 20 -50 3 -106 8 -122 10 -28 3 -35 -2 -69 -53z m1471 -693
c51 -26 107 -67 107 -79 0 -11 -160 -4 -170 7 -4 4 -20 30 -36 57 l-28 49 43
-7 c24 -3 62 -16 84 -27z m1107 -117 c0 -4 25 -51 56 -103 61 -102 154 -279
147 -279 -3 0 -28 20 -56 44 -29 24 -74 56 -102 71 -27 15 -53 29 -57 31 -3 2
0 18 9 34 21 43 22 98 3 158 -10 29 -13 52 -9 52 5 0 9 -4 9 -8z m1058 -139
c45 -77 172 -318 172 -327 0 -3 -19 -6 -43 -6 l-43 0 -38 83 c-20 45 -64 135
-97 200 l-59 117 34 0 c31 0 37 -5 74 -67z m2392 -82 c0 -5 3 -11 8 -13 8 -4
20 -25 127 -233 79 -154 131 -267 174 -385 12 -30 21 -56 21 -57 0 -2 -129 -2
-286 -1 -273 1 -287 2 -317 22 -37 24 -65 79 -133 251 -52 135 -197 441 -221
468 -15 16 -14 17 8 18 13 1 26 1 30 1 3 0 84 -3 180 -7 95 -3 186 -7 202 -9
19 -2 43 8 80 34 l52 37 38 -58 c20 -32 37 -63 37 -68z m-4204 -396 c55 -10
121 -60 153 -117 17 -29 31 -55 31 -58 0 -9 -237 -6 -245 2 -11 11 -64 171
-60 179 5 7 70 4 121 -6z"/>
<path d="M10715 5802 c-2 -2 -56 -5 -121 -7 -66 -2 -168 -7 -229 -10 -60 -3
-157 -8 -215 -10 -307 -13 -311 -14 -413 -48 l-98 -34 -42 21 c-36 18 -60 21
-172 20 -117 0 -198 -3 -551 -19 -56 -3 -121 -12 -144 -20 -24 -8 -48 -11 -54
-7 -6 5 -27 7 -46 6 -19 -1 -93 -5 -165 -8 -232 -12 -248 -14 -334 -47 -87
-33 -100 -31 -101 13 0 13 -8 16 -37 13 -21 -2 -99 -6 -173 -9 -236 -12 -277
-16 -316 -33 -55 -24 -66 -24 -71 -2 -3 10 -8 17 -12 15 -4 -3 -67 -7 -141
-11 -74 -4 -171 -8 -215 -11 -44 -2 -138 -6 -210 -9 -71 -3 -168 -7 -215 -10
-47 -3 -130 -7 -185 -9 -71 -3 -114 -10 -147 -25 -27 -11 -49 -18 -49 -16 -1
3 -2 11 -3 18 -1 13 -93 14 -346 4 -187 -9 -180 -7 -309 -71 -39 -19 -71 -34
-72 -33 0 1 -3 16 -5 32 -8 54 -8 54 -86 50 -40 -2 -136 -7 -213 -11 -77 -3
-163 -7 -191 -9 -30 -1 -74 -13 -107 -29 -31 -14 -58 -26 -61 -26 -3 0 -6 11
-6 24 0 23 -2 24 -67 21 -38 -2 -131 -6 -208 -10 -264 -12 -320 -14 -450 -21
-157 -8 -217 -11 -313 -14 -68 -3 -80 -7 -165 -56 l-92 -52 4 -94 c11 -271 0
-541 -29 -748 -6 -41 -12 -91 -15 -110 -2 -19 -4 -35 -5 -35 -1 0 -3 -13 -5
-30 -2 -16 -7 -41 -11 -55 -3 -14 -8 -41 -10 -60 -3 -19 -7 -43 -10 -52 -3
-10 -7 -28 -10 -40 -8 -46 -13 -65 -39 -168 -15 -58 -28 -112 -30 -120 -7 -28
-55 -184 -76 -245 -12 -33 -22 -67 -24 -75 -2 -8 -6 -22 -10 -32 -6 -14 -2
-15 32 -8 21 5 63 11 94 14 31 4 67 9 80 11 13 3 49 8 79 11 30 3 57 7 60 9 3
2 33 7 65 10 33 4 69 9 80 12 11 2 36 6 56 8 20 2 76 23 125 47 l89 43 53 175
c29 96 54 184 56 195 12 58 40 161 47 170 4 6 23 12 41 13 158 10 223 25 310
68 94 47 101 56 111 134 4 25 11 72 16 105 14 78 19 119 27 213 11 122 10 137
-4 134 -13 -2 -113 -11 -199 -17 -26 -2 -85 -6 -130 -10 -71 -5 -83 -3 -83 10
0 20 9 23 100 30 41 3 108 8 147 11 40 3 88 6 106 7 18 2 45 10 60 20 14 9 30
17 35 17 5 0 15 7 22 15 18 21 27 11 25 -27 -1 -18 -5 -85 -9 -148 -4 -63 -9
-126 -11 -140 -3 -14 -7 -45 -9 -70 -2 -25 -12 -90 -21 -145 -18 -114 -16
-105 -45 -245 -12 -58 -23 -148 -26 -200 -3 -81 -1 -102 16 -136 21 -42 65
-81 103 -91 38 -11 209 -12 277 -2 36 5 83 12 105 15 129 17 337 50 371 57 88
20 313 105 399 150 151 81 242 228 280 457 3 19 7 42 10 50 2 8 6 40 10 70 3
30 7 69 10 87 10 77 27 327 26 371 -1 27 2 32 21 33 13 1 39 3 58 5 109 11
120 11 121 -5 3 -50 -8 -322 -16 -375 -2 -17 -7 -58 -10 -91 -10 -90 -13 -112
-30 -214 -8 -52 -18 -97 -20 -101 -3 -5 -7 -25 -10 -46 -3 -22 -18 -94 -34
-162 l-29 -124 52 6 c28 4 62 8 76 11 14 2 102 15 195 29 127 19 195 34 270
62 55 20 103 41 106 47 4 5 10 28 14 51 5 22 9 43 10 46 4 13 15 69 20 99 3
19 7 37 9 40 2 3 7 23 10 44 3 20 8 52 11 70 3 17 7 46 10 62 2 17 8 63 14
103 16 104 29 282 32 425 2 72 5 87 18 88 48 2 91 11 128 29 24 11 46 20 51
20 14 0 3 -428 -13 -530 -2 -14 -7 -52 -11 -85 -3 -33 -9 -81 -13 -106 -4 -25
-6 -78 -5 -118 4 -97 31 -147 98 -180 79 -40 147 -36 626 35 98 15 400 111
458 146 l34 21 -6 -35 c-3 -19 -9 -43 -12 -53 -4 -11 -3 -16 2 -12 5 3 30 8
54 11 25 4 63 9 85 13 22 3 54 7 70 9 17 1 39 5 50 7 11 3 47 8 80 12 87 10
142 21 210 44 73 25 76 25 68 5 -5 -12 -2 -15 13 -11 10 4 42 9 69 12 28 4 61
8 75 10 14 2 54 9 90 14 36 6 89 13 119 16 30 3 57 8 60 9 3 2 27 7 54 10 124
16 143 18 162 22 11 2 72 11 135 20 137 18 177 24 210 29 24 4 60 9 145 21 22
3 52 7 66 10 14 2 83 12 155 23 71 10 161 31 199 44 39 14 83 28 99 31 16 3
33 9 37 13 4 4 10 49 13 98 3 50 9 128 12 173 l5 84 -28 -6 c-15 -3 -53 -8
-83 -11 -30 -3 -66 -8 -80 -10 -55 -8 -128 -16 -175 -20 -27 -2 -65 -6 -82 -9
-30 -6 -33 -4 -33 19 0 19 5 25 23 26 12 0 31 2 42 4 11 2 43 7 70 10 43 5
261 70 275 82 5 4 1 199 -4 243 -2 14 -4 40 -5 58 0 18 -5 31 -10 27 -6 -3
-36 -7 -68 -10 -32 -2 -85 -6 -118 -9 -189 -16 -217 -16 -213 -4 3 7 13 14 24
14 247 16 269 20 386 63 80 31 103 43 102 58 0 20 -14 140 -19 163 -2 8 -6 29
-9 45 -23 117 -19 112 -77 111 -28 -1 -52 -2 -54 -4z m-5167 -627 c-3 -3 -9 2
-12 12 -6 14 -5 15 5 6 7 -7 10 -15 7 -18z m0 -76 c-3 -20 -5 -19 -9 9 -3 20
-2 29 4 23 5 -5 7 -19 5 -32z m-2 -181 c-8 -193 -17 -287 -46 -493 -5 -38 -10
-76 -10 -82 0 -7 -5 -13 -11 -13 -11 0 -11 15 6 130 2 19 7 46 10 60 4 22 11
80 21 165 8 80 17 228 18 302 1 46 5 83 10 83 4 0 5 -69 2 -152z m4119 -25
c-2 -16 -4 -31 -4 -35 -1 -13 -35 -8 -54 6 -16 13 -15 15 15 34 44 27 47 27
43 -5z"/>
<path d="M3017 5464 c-1 -2 -54 -5 -117 -8 -241 -12 -251 -15 -414 -133 -33
-24 -62 -41 -64 -38 -3 2 -6 26 -7 52 -2 26 -3 58 -4 70 -1 19 -6 21 -33 18
-31 -4 -194 -12 -398 -20 -147 -6 -341 -15 -444 -21 l-98 -5 -69 -56 c-38 -30
-69 -60 -70 -67 0 -6 0 -81 0 -166 l0 -155 63 1 c35 1 98 4 141 7 l79 6 -7
-112 c-3 -62 -8 -128 -10 -147 -3 -19 -9 -73 -15 -120 -6 -47 -13 -101 -15
-120 -7 -57 -23 -147 -35 -203 -9 -43 -4 -49 42 -43 18 3 65 8 103 11 39 4 84
8 100 10 17 2 61 7 99 10 59 4 78 11 122 41 29 20 62 47 74 59 21 23 24 30 34
105 3 25 8 56 10 70 7 40 14 90 21 155 4 33 9 71 11 85 2 14 6 68 9 120 4 52
8 100 9 105 2 6 34 12 72 13 57 3 73 8 103 33 41 33 51 36 46 12 -2 -10 -6
-76 -10 -148 -5 -139 -12 -232 -21 -280 -3 -16 -7 -74 -9 -127 -5 -119 7 -151
71 -179 64 -29 162 -27 449 6 17 2 62 6 100 10 165 16 231 39 387 138 101 64
140 109 153 177 2 11 6 23 8 28 3 4 8 45 11 92 4 47 9 114 12 150 3 36 6 144
7 241 1 167 0 178 -24 225 -19 38 -34 54 -74 74 -47 24 -58 25 -223 26 -95 0
-174 -1 -175 -2z m-54 -436 c-1 -35 -2 -63 -3 -63 0 0 -3 -49 -5 -110 -2 -60
-7 -129 -10 -152 -6 -41 -8 -43 -41 -43 -32 0 -34 2 -29 28 9 54 25 266 26
349 1 53 1 53 33 53 l31 0 -2 -62z"/>
<path d="M3378 4315 c-2 -2 -34 -6 -73 -10 -38 -3 -88 -8 -110 -11 -22 -2 -62
-6 -90 -9 -27 -2 -77 -7 -110 -10 -78 -8 -132 -22 -173 -46 -43 -25 -45 -24
-38 7 4 14 3 23 -2 20 -4 -2 -37 -7 -72 -11 -35 -3 -78 -8 -95 -10 -16 -3 -47
-7 -68 -9 -21 -3 -44 -9 -50 -14 -7 -5 -38 -21 -69 -35 l-57 -25 10 24 c5 14
9 28 9 31 0 5 -42 2 -150 -12 -19 -2 -56 -7 -82 -10 -26 -4 -71 -19 -100 -35
-65 -36 -70 -37 -62 -4 l7 27 -64 -8 c-35 -4 -75 -8 -89 -10 -14 -2 -56 -6
-95 -9 -38 -4 -81 -8 -95 -10 -14 -3 -59 -7 -100 -11 -41 -4 -86 -8 -100 -10
-123 -15 -136 -19 -196 -56 -58 -37 -63 -43 -74 -92 -7 -29 -21 -77 -30 -107
-9 -30 -20 -68 -24 -84 l-7 -28 43 6 c24 3 66 9 95 12 l52 6 -24 -79 c-43
-139 -151 -436 -202 -551 -4 -10 4 -12 38 -7 24 3 51 8 59 10 8 2 38 6 65 9
28 4 68 9 90 13 22 4 42 7 45 7 3 1 35 18 71 40 65 38 66 38 99 125 36 95 79
210 84 226 2 6 6 17 9 25 14 34 67 205 67 217 0 7 8 13 18 14 50 2 79 14 130
51 33 25 53 34 49 24 -4 -9 -13 -42 -21 -74 -9 -31 -25 -84 -36 -117 -11 -33
-21 -62 -20 -65 1 -21 -137 -389 -153 -409 -10 -12 -2 -13 48 -7 33 3 71 8 85
11 14 2 57 9 95 15 50 8 90 22 138 50 62 36 67 37 61 17 -3 -12 -10 -27 -15
-33 -6 -7 19 -6 79 3 48 7 110 16 137 18 28 3 76 18 108 34 51 25 57 26 51 9
-5 -18 -2 -19 38 -13 23 4 57 9 73 11 17 2 48 7 70 10 22 3 51 7 65 8 14 2 39
6 55 9 17 4 50 9 75 12 25 3 54 7 66 9 12 2 45 7 74 11 29 4 65 12 79 18 14 5
28 11 31 12 3 1 30 14 60 29 l56 28 39 114 c21 63 36 116 34 119 -3 2 -30 0
-60 -4 -29 -5 -56 -7 -57 -6 -2 2 18 15 45 29 78 40 82 45 112 154 26 93 27
123 2 108 -5 -3 -30 -8 -57 -11 -27 -3 -60 -8 -74 -10 -81 -13 -131 -15 -125
-5 3 6 9 8 13 6 4 -2 43 2 87 9 63 10 95 22 151 55 l71 43 17 71 c9 39 19 90
22 113 6 41 5 42 -25 41 -17 -1 -32 -2 -33 -3z"/>
</g>
</svg>
